<svg width="166" height="40" viewBox="0 0 166 40" fill="none" xmlns="http://www.w3.org/2000/svg">
<path d="M30.9222 9.30261C30.562 8.94242 30.2019 8.58224 29.8417 8.22206C28.7611 7.06947 27.6085 5.91688 26.1678 5.19652C24.511 4.33208 22.71 4.54818 20.9091 4.54818C18.1717 4.54818 11.3282 4.54818 7.29419 4.54818L10.0316 8.22206C15.0021 8.22206 22.7821 8.22206 26.3839 8.22206C27.8967 8.22206 29.1933 8.5102 30.418 9.30261C30.6341 9.37464 30.8502 9.37464 30.9222 9.30261Z" fill="#66C61C"/>
<path d="M33.9478 15.2097C33.5876 14.8495 33.2274 14.4893 32.8672 14.1292C31.7867 12.9766 30.6341 11.824 29.1934 11.1036C27.5365 10.2392 25.7356 10.4553 23.9347 10.4553C21.5575 10.4553 15.8666 10.4553 11.8325 10.4553L14.5699 14.1292C19.4684 14.1292 26.1678 14.1292 29.4815 14.1292C30.9943 14.1292 32.2909 14.4173 33.5156 15.2097C33.6596 15.2817 33.8037 15.2817 33.9478 15.2097Z" fill="#4CA30D"/>
<path d="M37.3335 20.9725C36.9734 20.6123 36.6132 20.2521 36.253 19.8919C35.1724 18.7393 34.0199 17.5867 32.5791 16.8664C30.9223 16.0019 29.1214 16.218 27.3205 16.218C25.0873 16.218 20.1888 16.218 16.2268 16.218L18.9642 19.8919C23.7186 19.8919 29.7697 19.8919 32.7952 19.8919C34.308 19.8919 35.6047 20.1801 36.8293 20.9725C37.0454 21.0445 37.1895 21.1165 37.3335 20.9725Z" fill="#3B7C0F"/>
<path d="M7.0061 30.6974C7.36629 31.0576 7.72647 31.4178 8.08665 31.7779C9.1672 32.9305 10.3198 34.0831 11.7605 34.8035C13.4174 35.6679 15.2183 35.4518 17.0192 35.4518H30.6341L27.8967 31.7779C22.9262 31.7779 15.1463 31.7779 11.5444 31.7779C10.0316 31.7779 8.73498 31.4898 7.51036 30.6974C7.29425 30.6254 7.15018 30.6254 7.0061 30.6974Z" fill="#66C61C"/>
<path d="M3.98047 24.7906C4.34065 25.1508 4.70084 25.511 5.06102 25.8712C6.14157 27.0237 7.29415 28.1763 8.73488 28.8967C10.3917 29.7611 12.1926 29.545 13.9936 29.545H26.0957L23.3583 25.8712C18.4598 25.8712 11.7604 25.8712 8.44674 25.8712C6.93397 25.8712 5.63731 25.583 4.41268 24.7906C4.26861 24.7186 4.12454 24.7186 3.98047 24.7906Z" fill="#4CA30D"/>
<path d="M0.666748 18.9554C1.02693 19.3156 1.38711 19.6758 1.7473 20.0359C2.82785 21.1885 3.98044 22.3411 5.42117 23.0615C7.07802 23.9259 8.87893 23.7098 10.6798 23.7098H21.7735L19.0361 20.0359C14.2817 20.0359 8.2306 20.0359 5.20506 20.0359C3.69229 20.0359 2.39563 19.7478 1.171 18.9554C0.954893 18.8834 0.810821 18.8834 0.666748 18.9554Z" fill="#3B7C0F"/>
<path d="M45.6101 11.6733V28.3333H49.2734V21.45H56.2501V18.6033H49.2734V14.7533H57.3234V11.6733H45.6101Z" fill="#101828"/>
<path d="M66.5115 21.0067H61.1215C61.137 20.7733 61.1837 20.5089 61.2615 20.2133C61.3548 19.9178 61.5026 19.6378 61.7048 19.3733C61.9226 19.1089 62.2026 18.8911 62.5448 18.72C62.9026 18.5333 63.3459 18.44 63.8748 18.44C64.6837 18.44 65.2826 18.6578 65.6715 19.0933C66.0759 19.5289 66.3559 20.1667 66.5115 21.0067ZM61.1215 23.1067H69.8248C69.887 22.1733 69.8093 21.2789 69.5915 20.4233C69.3737 19.5678 69.0159 18.8056 68.5182 18.1367C68.0359 17.4678 67.4137 16.9389 66.6515 16.55C65.8893 16.1456 64.9948 15.9433 63.9682 15.9433C63.0504 15.9433 62.2104 16.1067 61.4482 16.4333C60.7015 16.76 60.0559 17.2111 59.5115 17.7867C58.967 18.3467 58.547 19.0156 58.2515 19.7933C57.9559 20.5711 57.8082 21.4111 57.8082 22.3133C57.8082 23.2467 57.9482 24.1022 58.2282 24.88C58.5237 25.6578 58.9359 26.3267 59.4648 26.8867C59.9937 27.4467 60.6393 27.8822 61.4015 28.1933C62.1637 28.4889 63.0193 28.6367 63.9682 28.6367C65.337 28.6367 66.5037 28.3256 67.4682 27.7033C68.4326 27.0811 69.1482 26.0467 69.6148 24.6H66.6982C66.5893 24.9733 66.2937 25.3311 65.8115 25.6733C65.3293 26 64.7537 26.1633 64.0848 26.1633C63.1515 26.1633 62.4359 25.9222 61.9382 25.44C61.4404 24.9578 61.1682 24.18 61.1215 23.1067Z" fill="#101828"/>
<path d="M70.9499 19.98C70.9966 19.2022 71.191 18.5567 71.5333 18.0433C71.8755 17.53 72.311 17.1178 72.8399 16.8067C73.3688 16.4956 73.9599 16.2778 74.6133 16.1533C75.2822 16.0133 75.951 15.9433 76.6199 15.9433C77.2266 15.9433 77.841 15.99 78.4633 16.0833C79.0855 16.1611 79.6533 16.3245 80.1666 16.5733C80.6799 16.8222 81.0999 17.1722 81.4266 17.6233C81.7533 18.0589 81.9166 18.6422 81.9166 19.3733V25.65C81.9166 26.1945 81.9477 26.7156 82.0099 27.2133C82.0722 27.7111 82.181 28.0845 82.3366 28.3333H78.9766C78.9144 28.1467 78.8599 27.96 78.8133 27.7733C78.7821 27.5711 78.7588 27.3689 78.7433 27.1667C78.2144 27.7111 77.5921 28.0922 76.8766 28.31C76.161 28.5278 75.4299 28.6367 74.6833 28.6367C74.1077 28.6367 73.571 28.5667 73.0733 28.4267C72.5755 28.2867 72.1399 28.0689 71.7666 27.7733C71.3933 27.4778 71.0977 27.1045 70.8799 26.6533C70.6777 26.2022 70.5766 25.6656 70.5766 25.0433C70.5766 24.3589 70.6933 23.7989 70.9266 23.3633C71.1755 22.9122 71.4866 22.5545 71.8599 22.29C72.2488 22.0256 72.6844 21.8311 73.1666 21.7067C73.6644 21.5667 74.1621 21.4578 74.6599 21.38C75.1577 21.3022 75.6477 21.24 76.1299 21.1933C76.6122 21.1467 77.0399 21.0767 77.4133 20.9833C77.7866 20.89 78.0821 20.7578 78.2999 20.5867C78.5177 20.4 78.6188 20.1356 78.6033 19.7933C78.6033 19.4356 78.541 19.1556 78.4166 18.9533C78.3077 18.7356 78.1521 18.5722 77.9499 18.4633C77.7633 18.3389 77.5377 18.2611 77.2733 18.23C77.0244 18.1833 76.7521 18.16 76.4566 18.16C75.8033 18.16 75.2899 18.3 74.9166 18.58C74.5433 18.86 74.3255 19.3267 74.2633 19.98H70.9499ZM78.6033 22.43C78.4633 22.5545 78.2844 22.6556 78.0666 22.7333C77.8644 22.7956 77.6388 22.85 77.3899 22.8967C77.1566 22.9433 76.9077 22.9822 76.6433 23.0133C76.3788 23.0445 76.1144 23.0833 75.8499 23.13C75.601 23.1767 75.3521 23.2389 75.1033 23.3167C74.8699 23.3945 74.6599 23.5033 74.4733 23.6433C74.3021 23.7678 74.1621 23.9311 74.0533 24.1333C73.9444 24.3356 73.8899 24.5922 73.8899 24.9033C73.8899 25.1989 73.9444 25.4478 74.0533 25.65C74.1621 25.8522 74.3099 26.0156 74.4966 26.14C74.6833 26.2489 74.901 26.3267 75.1499 26.3733C75.3988 26.42 75.6555 26.4433 75.9199 26.4433C76.5733 26.4433 77.0788 26.3345 77.4366 26.1167C77.7944 25.8989 78.0588 25.6422 78.2299 25.3467C78.401 25.0356 78.5021 24.7245 78.5333 24.4133C78.5799 24.1022 78.6033 23.8533 78.6033 23.6667V22.43Z" fill="#101828"/>
<path d="M87.9884 16.27V12.6533H84.675V16.27H82.6684V18.4867H84.675V25.6033C84.675 26.21 84.7761 26.7 84.9784 27.0733C85.1806 27.4467 85.4528 27.7345 85.795 27.9367C86.1528 28.1389 86.5573 28.2711 87.0084 28.3333C87.475 28.4111 87.965 28.45 88.4784 28.45C88.805 28.45 89.1395 28.4422 89.4817 28.4267C89.8239 28.4111 90.135 28.38 90.415 28.3333V25.7667C90.2595 25.7978 90.0961 25.8211 89.925 25.8367C89.7539 25.8522 89.575 25.86 89.3884 25.86C88.8284 25.86 88.455 25.7667 88.2684 25.58C88.0817 25.3933 87.9884 25.02 87.9884 24.46V18.4867H90.415V16.27H87.9884Z" fill="#101828"/>
<path d="M91.2915 11.6733V28.3333H94.6048V22.01C94.6048 20.7811 94.807 19.9022 95.2115 19.3733C95.6159 18.8289 96.2693 18.5567 97.1715 18.5567C97.9648 18.5567 98.517 18.8056 98.8282 19.3033C99.1393 19.7856 99.2948 20.5245 99.2948 21.52V28.3333H102.608V20.9133C102.608 20.1667 102.538 19.49 102.398 18.8833C102.274 18.2611 102.048 17.74 101.721 17.32C101.395 16.8845 100.944 16.55 100.368 16.3167C99.8082 16.0678 99.0848 15.9433 98.1982 15.9433C97.5759 15.9433 96.9382 16.1067 96.2848 16.4333C95.6315 16.7445 95.0948 17.25 94.6748 17.95H94.6048V11.6733H91.2915Z" fill="#101828"/>
<path d="M112.543 21.0067H107.153C107.168 20.7733 107.215 20.5089 107.293 20.2133C107.386 19.9178 107.534 19.6378 107.736 19.3733C107.954 19.1089 108.234 18.8911 108.576 18.72C108.934 18.5333 109.377 18.44 109.906 18.44C110.715 18.44 111.314 18.6578 111.703 19.0933C112.107 19.5289 112.387 20.1667 112.543 21.0067ZM107.153 23.1067H115.856C115.918 22.1733 115.841 21.2789 115.623 20.4233C115.405 19.5678 115.047 18.8056 114.55 18.1367C114.067 17.4678 113.445 16.9389 112.683 16.55C111.921 16.1456 111.026 15.9433 110 15.9433C109.082 15.9433 108.242 16.1067 107.48 16.4333C106.733 16.76 106.087 17.2111 105.543 17.7867C104.998 18.3467 104.578 19.0156 104.283 19.7933C103.987 20.5711 103.84 21.4111 103.84 22.3133C103.84 23.2467 103.98 24.1022 104.26 24.88C104.555 25.6578 104.967 26.3267 105.496 26.8867C106.025 27.4467 106.671 27.8822 107.433 28.1933C108.195 28.4889 109.051 28.6367 110 28.6367C111.368 28.6367 112.535 28.3256 113.5 27.7033C114.464 27.0811 115.18 26.0467 115.646 24.6H112.73C112.621 24.9733 112.325 25.3311 111.843 25.6733C111.361 26 110.785 26.1633 110.116 26.1633C109.183 26.1633 108.467 25.9222 107.97 25.44C107.472 24.9578 107.2 24.18 107.153 23.1067Z" fill="#101828"/>
<path d="M117.121 16.27V28.3333H120.435V22.8967C120.435 22.3522 120.489 21.8467 120.598 21.38C120.707 20.9133 120.886 20.5089 121.135 20.1667C121.399 19.8089 121.741 19.5289 122.161 19.3267C122.581 19.1245 123.095 19.0233 123.701 19.0233C123.904 19.0233 124.114 19.0389 124.331 19.07C124.549 19.0856 124.736 19.1089 124.891 19.14V16.06C124.627 15.9822 124.386 15.9433 124.168 15.9433C123.748 15.9433 123.344 16.0056 122.955 16.13C122.566 16.2545 122.2 16.4333 121.858 16.6667C121.516 16.8845 121.212 17.1567 120.948 17.4833C120.684 17.7945 120.474 18.1367 120.318 18.51H120.271V16.27H117.121Z" fill="#101828"/>
<path d="M129.504 25.2533V14.7533H132.117C133.019 14.7533 133.774 14.8856 134.38 15.15C135.003 15.3989 135.5 15.7645 135.874 16.2467C136.247 16.7289 136.511 17.3122 136.667 17.9967C136.838 18.6656 136.924 19.42 136.924 20.26C136.924 21.1778 136.807 21.9556 136.574 22.5933C136.34 23.2311 136.029 23.7522 135.64 24.1567C135.251 24.5456 134.808 24.8256 134.31 24.9967C133.813 25.1678 133.299 25.2533 132.77 25.2533H129.504ZM125.84 11.6733V28.3333H133.027C134.303 28.3333 135.407 28.1233 136.34 27.7033C137.289 27.2678 138.075 26.6767 138.697 25.93C139.335 25.1833 139.809 24.2967 140.12 23.27C140.431 22.2433 140.587 21.1233 140.587 19.91C140.587 18.5256 140.393 17.32 140.004 16.2933C139.63 15.2667 139.101 14.4111 138.417 13.7267C137.748 13.0422 136.947 12.5289 136.014 12.1867C135.096 11.8445 134.1 11.6733 133.027 11.6733H125.84Z" fill="#101828"/>
<path d="M150.205 21.0067H144.815C144.831 20.7733 144.877 20.5089 144.955 20.2133C145.049 19.9178 145.196 19.6378 145.399 19.3733C145.616 19.1089 145.896 18.8911 146.239 18.72C146.596 18.5333 147.04 18.44 147.569 18.44C148.377 18.44 148.976 18.6578 149.365 19.0933C149.77 19.5289 150.05 20.1667 150.205 21.0067ZM144.815 23.1067H153.519C153.581 22.1733 153.503 21.2789 153.285 20.4233C153.067 19.5678 152.71 18.8056 152.212 18.1367C151.73 17.4678 151.107 16.9389 150.345 16.55C149.583 16.1456 148.689 15.9433 147.662 15.9433C146.744 15.9433 145.904 16.1067 145.142 16.4333C144.395 16.76 143.75 17.2111 143.205 17.7867C142.661 18.3467 142.241 19.0156 141.945 19.7933C141.65 20.5711 141.502 21.4111 141.502 22.3133C141.502 23.2467 141.642 24.1022 141.922 24.88C142.217 25.6578 142.63 26.3267 143.159 26.8867C143.687 27.4467 144.333 27.8822 145.095 28.1933C145.857 28.4889 146.713 28.6367 147.662 28.6367C149.031 28.6367 150.197 28.3256 151.162 27.7033C152.126 27.0811 152.842 26.0467 153.309 24.6H150.392C150.283 24.9733 149.987 25.3311 149.505 25.6733C149.023 26 148.447 26.1633 147.779 26.1633C146.845 26.1633 146.13 25.9222 145.632 25.44C145.134 24.9578 144.862 24.18 144.815 23.1067Z" fill="#101828"/>
<path d="M161.457 28.3333L165.54 16.27H162.25L159.707 24.5067H159.66L157.117 16.27H153.64L157.77 28.3333H161.457Z" fill="#101828"/>
</svg>
